# xmcd CD database file
#
# Track frame offsets:
#	150
#	15189
#	31165
#	44299
#	62006
#	78936
#	95673
#	110405
#	125595
#	140961
#	153412
#	169966
#	187170
#	203351
#	221204
#
# Disc length: 3183 seconds
#
# Revision: 0
# Processed by: cddbd v1.5.2PL0 Copyright (c) Steve Scherf et al.
# Submitted via: CDex 1.70beta2
#
DISCID=d00c6d0f
DTITLE=Various Artist - Drews Famous Big Country Hits
DYEAR=1900
DGENRE=Country
TTITLE0=Next Big Thing
TTITLE1=These Days
TTITLE2=Up!
TTITLE3=Big Star
TTITLE4=Land Slide
TTITLE5=Beautiful Mess
TTITLE6=19 Somethin'
TTITLE7=I Just Wanna Be Mad
TTITLE8=This Is God
TTITLE9=Fall Into Me
TTITLE10=Beautiful Goodby
TTITLE11=Somebody Like You
TTITLE12=Living and Living Well
TTITLE13=Who's Your Daddy
TTITLE14=When The Lights Go Down
EXTD=
EXTT0=
EXTT1=
EXTT2=
EXTT3=
EXTT4=
EXTT5=
EXTT6=
EXTT7=
EXTT8=
EXTT9=
EXTT10=
EXTT11=
EXTT12=
EXTT13=
EXTT14=
PLAYORDER=
